<?xml version="1.0" encoding="UTF-8"?>
<svg xmlns="http://www.w3.org/2000/svg" viewBox="0 0 600 160">
  <defs>
    <linearGradient id="grad" x1="0" y1="0" x2="1" y2="1">
      <stop offset="0%" stop-color="#00bcd4"/>
      <stop offset="100%" stop-color="#1976d2"/>
    </linearGradient>
  </defs>
  <rect width="600" height="160" rx="24" fill="#0b1b2b"/>
  <!-- Icon -->
  <g transform="translate(36,20)">
    <path d="M64 0c-24 42-60 66-60 100 0 33 27 60 60 60s60-27 60-60C124 66 88 42 64 0z" fill="url(#grad)"/>
    <g fill="none" stroke="#e3f2fd" stroke-width="6" stroke-linecap="round">
      <path d="M64 40c20 0 36 16 36 36"/>
      <path d="M64 24c28 0 52 24 52 52" opacity=".7"/>
      <path d="M64 10c38 0 66 28 66 66" opacity=".4"/>
    </g>
    <circle cx="64" cy="78" r="12" fill="#e3f2fd"/>
  </g>
  <!-- Wordmark -->
  <g transform="translate(180,104)" fill="#e3f2fd">
    <path d="M0-52h22v82H0z"/>
    <path d="M34-20c0-20 14-34 35-34 21 0 35 14 35 34s-14 34-35 34c-21 0-35-14-35-34zm50 0c0-10-6-18-15-18s-15 8-15 18 6 18 15 18 15-8 15-18z"/>
    <path d="M118-52h22v30l26-30h26l-28 30 30 52h-25l-19-36-10 10v26h-22z"/>
  </g>
</svg>
